<?xml version="1.0" encoding="iso-8859-1"?>
<!-- Uploaded to: SVG Repo, www.svgrepo.com, Generator: SVG Repo Mixer Tools -->
<svg height="800px" width="800px" version="1.1" id="Capa_1" xmlns="http://www.w3.org/2000/svg" xmlns:xlink="http://www.w3.org/1999/xlink" 
	 viewBox="0 0 52 52" xml:space="preserve">
<g>
	<g>
		<path style="fill:#010002;" d="M26,17.716c-4.566,0-8.283,3.716-8.283,8.283s3.717,8.283,8.283,8.283
			c4.568,0,8.283-3.716,8.283-8.283S30.568,17.716,26,17.716z M26,29.911c-2.16,0-3.91-1.751-3.91-3.912
			c0-2.16,1.75-3.912,3.91-3.912s3.912,1.751,3.912,3.912C29.912,28.16,28.16,29.911,26,29.911z"/>
		<path style="fill:#010002;" d="M26,0C11.641,0,0,11.641,0,26s11.641,26,26,26s26-11.641,26-26S40.359,0,26,0z M26,37.965
			c-6.596,0-11.965-5.367-11.965-11.965S19.404,14.035,26,14.035c6.598,0,11.965,5.367,11.965,11.965
			C37.964,32.597,32.597,37.965,26,37.965z"/>
	</g>
</g>
</svg>